{
    "patcher": {
        "fileversion": 1,
        "appversion": {
            "major": 9,
            "minor": 1,
            "revision": 2,
            "architecture": "x64",
            "modernui": 1
        },
        "classnamespace": "box",
        "rect": [ 867.0, 84.0, 762.0, 942.0 ],
        "boxes": [
            {
                "box": {
                    "id": "obj-39",
                    "maxclass": "newobj",
                    "numinlets": 1,
                    "numoutlets": 0,
                    "patching_rect": [ 50.000001192092896, 383.8983142375946, 77.0, 22.0 ],
                    "text": "print powers:"
                }
            },
            {
                "box": {
                    "id": "obj-38",
                    "maxclass": "newobj",
                    "numinlets": 2,
                    "numoutlets": 1,
                    "outlettype": [ "" ],
                    "patching_rect": [ 49.80508470535278, 351.6949236392975, 60.529409646987915, 22.0 ],
                    "text": "pack i f"
                }
            },
            {
                "box": {
                    "color": [ 0.317647, 0.654902, 0.976471, 1.0 ],
                    "id": "obj-37",
                    "maxclass": "newobj",
                    "numinlets": 1,
                    "numoutlets": 1,
                    "outlettype": [ "" ],
                    "patching_rect": [ 112.91724836826324, 272.0588183403015, 57.0, 22.0 ],
                    "text": "value phi"
                }
            },
            {
                "box": {
                    "id": "obj-36",
                    "maxclass": "newobj",
                    "numinlets": 2,
                    "numoutlets": 1,
                    "outlettype": [ "" ],
                    "patching_rect": [ 91.52941083908081, 313.5842430591583, 105.0, 22.0 ],
                    "text": "expr pow($f1\\, $f2)"
                }
            },
            {
                "box": {
                    "id": "obj-35",
                    "maxclass": "newobj",
                    "numinlets": 1,
                    "numoutlets": 3,
                    "outlettype": [ "int", "bang", "int" ],
                    "patching_rect": [ 48.30508589744568, 218.38234877586365, 148.22432494163513, 22.0 ],
                    "text": "t i b i"
                }
            },
            {
                "box": {
                    "id": "obj-34",
                    "maxclass": "comment",
                    "numinlets": 1,
                    "numoutlets": 0,
                    "patching_rect": [ 110.29411554336548, 179.4117612838745, 150.0, 20.0 ],
                    "text": "< obtain powers of phi>"
                }
            },
            {
                "box": {
                    "id": "obj-32",
                    "maxclass": "number",
                    "numinlets": 1,
                    "numoutlets": 2,
                    "outlettype": [ "", "bang" ],
                    "parameter_enable": 0,
                    "patching_rect": [ 48.30508589744568, 178.4117612838745, 50.0, 22.0 ]
                }
            },
            {
                "box": {
                    "id": "obj-30",
                    "maxclass": "newobj",
                    "numinlets": 0,
                    "numoutlets": 1,
                    "outlettype": [ "" ],
                    "patching_rect": [ 585.0, 177.2058789730072, 58.088234186172485, 22.0 ],
                    "text": "r freq"
                }
            },
            {
                "box": {
                    "id": "obj-27",
                    "maxclass": "newobj",
                    "numinlets": 1,
                    "numoutlets": 2,
                    "outlettype": [ "float", "bang" ],
                    "patching_rect": [ 585.0, 213.97058415412903, 29.5, 22.0 ],
                    "text": "t f b"
                }
            },
            {
                "box": {
                    "id": "obj-26",
                    "maxclass": "newobj",
                    "numinlets": 2,
                    "numoutlets": 1,
                    "outlettype": [ "float" ],
                    "patching_rect": [ 612.9411759376526, 242.64705419540405, 45.0, 22.0 ],
                    "text": "f 2000."
                }
            },
            {
                "box": {
                    "id": "obj-25",
                    "maxclass": "newobj",
                    "numinlets": 2,
                    "numoutlets": 1,
                    "outlettype": [ "" ],
                    "patching_rect": [ 585.0, 272.0588183403015, 47.0, 22.0 ],
                    "text": "pack f f"
                }
            },
            {
                "box": {
                    "fontface": 2,
                    "id": "obj-23",
                    "maxclass": "comment",
                    "numinlets": 1,
                    "numoutlets": 0,
                    "patching_rect": [ 683.823516368866, 304.6764647960663, 124.99999761581421, 20.0 ],
                    "text": "<frequency duration>"
                }
            },
            {
                "box": {
                    "id": "obj-14",
                    "maxclass": "newobj",
                    "numinlets": 1,
                    "numoutlets": 1,
                    "outlettype": [ "" ],
                    "patching_rect": [ 585.0, 303.6764647960663, 79.0, 22.0 ],
                    "text": "prepend note"
                }
            },
            {
                "box": {
                    "id": "obj-13",
                    "maxclass": "newobj",
                    "numinlets": 1,
                    "numoutlets": 0,
                    "patching_rect": [ 668.8235278129578, 531.6176369190216, 68.0, 22.0 ],
                    "text": "send~ out2"
                }
            },
            {
                "box": {
                    "id": "obj-10",
                    "maxclass": "newobj",
                    "numinlets": 1,
                    "numoutlets": 0,
                    "patching_rect": [ 585.0, 531.6176369190216, 68.0, 22.0 ],
                    "text": "send~ out1"
                }
            },
            {
                "box": {
                    "channels": 1,
                    "id": "obj-8",
                    "lastchannelcount": 0,
                    "maxclass": "live.gain~",
                    "numinlets": 1,
                    "numoutlets": 4,
                    "outlettype": [ "signal", "", "float", "list" ],
                    "parameter_enable": 1,
                    "patching_rect": [ 585.0, 374.2646987438202, 48.0, 136.0 ],
                    "saved_attribute_attributes": {
                        "valueof": {
                            "parameter_longname": "live.gain~[1]",
                            "parameter_mmax": 6.0,
                            "parameter_mmin": -70.0,
                            "parameter_modmode": 3,
                            "parameter_shortname": "live.gain~[1]",
                            "parameter_type": 0,
                            "parameter_unitstyle": 4
                        }
                    },
                    "varname": "live.gain~[1]"
                }
            },
            {
                "box": {
                    "id": "obj-3",
                    "maxclass": "newobj",
                    "numinlets": 1,
                    "numoutlets": 4,
                    "outlettype": [ "signal", "", "", "" ],
                    "patching_rect": [ 585.0, 333.8235230445862, 148.0, 22.0 ],
                    "text": "poly~ phi.polyCore.v01 16"
                }
            },
            {
                "box": {
                    "bgmode": 0,
                    "border": 0,
                    "clickthrough": 0,
                    "enablehscroll": 0,
                    "enablevscroll": 0,
                    "id": "obj-18",
                    "lockeddragscroll": 0,
                    "lockedsize": 0,
                    "maxclass": "bpatcher",
                    "name": "z.credits.v01.bp.maxpat",
                    "numinlets": 0,
                    "numoutlets": 0,
                    "offset": [ 0.0, 0.0 ],
                    "patching_rect": [ 964.0, 28.0, 244.0, 75.0 ],
                    "viewvisibility": 1
                }
            },
            {
                "box": {
                    "id": "obj-4",
                    "linecount": 3,
                    "maxclass": "comment",
                    "numinlets": 1,
                    "numoutlets": 0,
                    "patching_rect": [ 328.0, 66.67539267015718, 63.0, 48.0 ],
                    "text": "a = 2\nb = 1\nc = sqrt(5)"
                }
            },
            {
                "box": {
                    "id": "obj-28",
                    "maxclass": "comment",
                    "numinlets": 1,
                    "numoutlets": 0,
                    "patching_rect": [ 453.0, 66.67539267015718, 62.0, 20.0 ],
                    "text": "a/b == b/c"
                }
            },
            {
                "box": {
                    "id": "obj-29",
                    "linecount": 2,
                    "maxclass": "comment",
                    "numinlets": 1,
                    "numoutlets": 0,
                    "patching_rect": [ 328.0, 28.0, 185.0, 34.0 ],
                    "text": "|------------b-------------||------c-------|\n|---------------------a--------------------|"
                }
            },
            {
                "box": {
                    "color": [ 0.870588, 0.415686, 0.062745, 1.0 ],
                    "id": "obj-21",
                    "maxclass": "newobj",
                    "numinlets": 1,
                    "numoutlets": 1,
                    "outlettype": [ "bang" ],
                    "patching_rect": [ 29.0, 28.0, 58.0, 22.0 ],
                    "text": "loadbang"
                }
            },
            {
                "box": {
                    "fontface": 2,
                    "id": "obj-24",
                    "linecount": 3,
                    "maxclass": "comment",
                    "numinlets": 1,
                    "numoutlets": 0,
                    "patching_rect": [ 585.0, 62.0, 361.0, 48.0 ],
                    "text": "The idea is to use variable phi as a const (i.e. like in JavaScript). \nconst phi = make your calculation once, here!\nCalculate only once & recall it later; more computationally efficient!"
                }
            },
            {
                "box": {
                    "id": "obj-16",
                    "maxclass": "comment",
                    "numinlets": 1,
                    "numoutlets": 0,
                    "patching_rect": [ 561.0, 28.0, 295.0, 20.0 ],
                    "text": "<= 3. recall variable phi somewhere else in your patch"
                }
            },
            {
                "box": {
                    "color": [ 0.317647, 0.654902, 0.976471, 1.0 ],
                    "id": "obj-15",
                    "maxclass": "newobj",
                    "numinlets": 1,
                    "numoutlets": 1,
                    "outlettype": [ "" ],
                    "patching_rect": [ 526.0, 62.0, 57.0, 22.0 ],
                    "text": "value phi"
                }
            },
            {
                "box": {
                    "id": "obj-12",
                    "maxclass": "comment",
                    "numinlets": 1,
                    "numoutlets": 0,
                    "patching_rect": [ 88.0, 28.0, 190.0, 20.0 ],
                    "text": "<= 1. calculate the Golden Ratio ϕ"
                }
            },
            {
                "box": {
                    "id": "obj-11",
                    "maxclass": "comment",
                    "numinlets": 1,
                    "numoutlets": 0,
                    "patching_rect": [ 88.0, 90.0, 228.0, 20.0 ],
                    "text": "<= 2. value is stored as a named variable"
                }
            },
            {
                "box": {
                    "id": "obj-9",
                    "maxclass": "button",
                    "numinlets": 1,
                    "numoutlets": 1,
                    "outlettype": [ "bang" ],
                    "parameter_enable": 0,
                    "patching_rect": [ 526.0, 28.0, 24.0, 24.0 ]
                }
            },
            {
                "box": {
                    "id": "obj-7",
                    "maxclass": "comment",
                    "numinlets": 1,
                    "numoutlets": 0,
                    "patching_rect": [ 153.0, 63.0, 153.0, 20.0 ],
                    "text": "<= result is appx. 1.618034"
                }
            },
            {
                "box": {
                    "color": [ 0.862745, 0.741176, 0.137255, 1.0 ],
                    "id": "obj-5",
                    "maxclass": "newobj",
                    "numinlets": 1,
                    "numoutlets": 0,
                    "patching_rect": [ 526.0, 90.0, 55.0, 22.0 ],
                    "text": "print phi:"
                }
            },
            {
                "box": {
                    "color": [ 0.439216, 0.74902, 0.254902, 1.0 ],
                    "id": "obj-2",
                    "maxclass": "newobj",
                    "numinlets": 1,
                    "numoutlets": 1,
                    "outlettype": [ "" ],
                    "patching_rect": [ 29.0, 62.0, 122.0, 22.0 ],
                    "text": "expr (1. + sqrt(5)) / 2."
                }
            },
            {
                "box": {
                    "color": [ 0.317647, 0.654902, 0.976471, 1.0 ],
                    "id": "obj-1",
                    "maxclass": "newobj",
                    "numinlets": 1,
                    "numoutlets": 1,
                    "outlettype": [ "" ],
                    "patching_rect": [ 29.0, 90.0, 57.0, 22.0 ],
                    "text": "value phi"
                }
            }
        ],
        "lines": [
            {
                "patchline": {
                    "destination": [ "obj-3", 0 ],
                    "source": [ "obj-14", 0 ]
                }
            },
            {
                "patchline": {
                    "destination": [ "obj-5", 0 ],
                    "source": [ "obj-15", 0 ]
                }
            },
            {
                "patchline": {
                    "destination": [ "obj-1", 0 ],
                    "source": [ "obj-2", 0 ]
                }
            },
            {
                "patchline": {
                    "destination": [ "obj-2", 0 ],
                    "source": [ "obj-21", 0 ]
                }
            },
            {
                "patchline": {
                    "destination": [ "obj-14", 0 ],
                    "source": [ "obj-25", 0 ]
                }
            },
            {
                "patchline": {
                    "destination": [ "obj-25", 1 ],
                    "source": [ "obj-26", 0 ]
                }
            },
            {
                "patchline": {
                    "destination": [ "obj-25", 0 ],
                    "source": [ "obj-27", 0 ]
                }
            },
            {
                "patchline": {
                    "destination": [ "obj-26", 0 ],
                    "source": [ "obj-27", 1 ]
                }
            },
            {
                "patchline": {
                    "destination": [ "obj-8", 0 ],
                    "source": [ "obj-3", 0 ]
                }
            },
            {
                "patchline": {
                    "destination": [ "obj-27", 0 ],
                    "source": [ "obj-30", 0 ]
                }
            },
            {
                "patchline": {
                    "destination": [ "obj-35", 0 ],
                    "source": [ "obj-32", 0 ]
                }
            },
            {
                "patchline": {
                    "destination": [ "obj-36", 1 ],
                    "source": [ "obj-35", 2 ]
                }
            },
            {
                "patchline": {
                    "destination": [ "obj-37", 0 ],
                    "source": [ "obj-35", 1 ]
                }
            },
            {
                "patchline": {
                    "destination": [ "obj-38", 0 ],
                    "source": [ "obj-35", 0 ]
                }
            },
            {
                "patchline": {
                    "destination": [ "obj-38", 1 ],
                    "source": [ "obj-36", 0 ]
                }
            },
            {
                "patchline": {
                    "destination": [ "obj-36", 0 ],
                    "source": [ "obj-37", 0 ]
                }
            },
            {
                "patchline": {
                    "destination": [ "obj-39", 0 ],
                    "source": [ "obj-38", 0 ]
                }
            },
            {
                "patchline": {
                    "destination": [ "obj-10", 0 ],
                    "order": 1,
                    "source": [ "obj-8", 0 ]
                }
            },
            {
                "patchline": {
                    "destination": [ "obj-13", 0 ],
                    "order": 0,
                    "source": [ "obj-8", 0 ]
                }
            },
            {
                "patchline": {
                    "destination": [ "obj-15", 0 ],
                    "source": [ "obj-9", 0 ]
                }
            }
        ],
        "parameters": {
            "obj-8": [ "live.gain~[1]", "live.gain~[1]", 0 ],
            "parameterbanks": {
                "0": {
                    "index": 0,
                    "name": "",
                    "parameters": [ "-", "-", "-", "-", "-", "-", "-", "-" ],
                    "buttons": [ "-", "-", "-", "-", "-", "-", "-", "-" ]
                }
            },
            "inherited_shortname": 1
        },
        "autosave": 0
    }
}