{
    "patcher": {
        "fileversion": 1,
        "appversion": {
            "major": 9,
            "minor": 1,
            "revision": 2,
            "architecture": "x64",
            "modernui": 1
        },
        "classnamespace": "box",
        "rect": [ 34.0, 77.0, 1597.0, 951.0 ],
        "boxes": [
            {
                "box": {
                    "id": "obj-33",
                    "maxclass": "toggle",
                    "numinlets": 1,
                    "numoutlets": 1,
                    "outlettype": [ "int" ],
                    "parameter_enable": 0,
                    "patching_rect": [ 298.8305153846741, 104.26315689086914, 24.0, 24.0 ]
                }
            },
            {
                "box": {
                    "id": "obj-31",
                    "maxclass": "newobj",
                    "numinlets": 1,
                    "numoutlets": 3,
                    "outlettype": [ "bang", "bang", "bang" ],
                    "patching_rect": [ 289.8305153846741, 194.07894551753998, 42.0, 22.0 ],
                    "text": "t b b b"
                }
            },
            {
                "box": {
                    "id": "obj-29",
                    "maxclass": "newobj",
                    "numinlets": 2,
                    "numoutlets": 1,
                    "outlettype": [ "bang" ],
                    "patching_rect": [ 285.59322714805603, 145.76271533966064, 69.0, 22.0 ],
                    "text": "metro 2000"
                }
            },
            {
                "box": {
                    "color": [ 0.870588, 0.415686, 0.062745, 1.0 ],
                    "id": "obj-21",
                    "maxclass": "newobj",
                    "numinlets": 1,
                    "numoutlets": 1,
                    "outlettype": [ "bang" ],
                    "patching_rect": [ 289.8305153846741, 567.7966237068176, 58.0, 22.0 ],
                    "text": "loadbang"
                }
            },
            {
                "box": {
                    "id": "obj-22",
                    "maxclass": "comment",
                    "numinlets": 1,
                    "numoutlets": 0,
                    "patching_rect": [ 348.30509305000305, 567.7966237068176, 190.0, 20.0 ],
                    "text": "<= 1. calculate the Golden Ratio ϕ"
                }
            },
            {
                "box": {
                    "id": "obj-24",
                    "maxclass": "comment",
                    "numinlets": 1,
                    "numoutlets": 0,
                    "patching_rect": [ 348.30509305000305, 630.5084896087646, 228.0, 20.0 ],
                    "text": "<= 2. value is stored as a named variable"
                }
            },
            {
                "box": {
                    "id": "obj-26",
                    "maxclass": "comment",
                    "numinlets": 1,
                    "numoutlets": 0,
                    "patching_rect": [ 413.5593318939209, 603.3898448944092, 153.0, 20.0 ],
                    "text": "<= result is appx. 1.618034"
                }
            },
            {
                "box": {
                    "color": [ 0.439216, 0.74902, 0.254902, 1.0 ],
                    "id": "obj-27",
                    "maxclass": "newobj",
                    "numinlets": 1,
                    "numoutlets": 1,
                    "outlettype": [ "" ],
                    "patching_rect": [ 289.8305153846741, 602.5423872470856, 122.0, 22.0 ],
                    "text": "expr (1. + sqrt(5)) / 2."
                }
            },
            {
                "box": {
                    "color": [ 0.317647, 0.654902, 0.976471, 1.0 ],
                    "id": "obj-28",
                    "maxclass": "newobj",
                    "numinlets": 1,
                    "numoutlets": 1,
                    "outlettype": [ "" ],
                    "patching_rect": [ 289.8305153846741, 630.5084896087646, 57.0, 22.0 ],
                    "text": "value phi"
                }
            },
            {
                "box": {
                    "id": "obj-20",
                    "maxclass": "newobj",
                    "numinlets": 2,
                    "numoutlets": 2,
                    "outlettype": [ "", "" ],
                    "patching_rect": [ 23.026315569877625, 265.13157641887665, 51.0, 22.0 ],
                    "text": "zl group"
                }
            },
            {
                "box": {
                    "id": "obj-19",
                    "maxclass": "newobj",
                    "numinlets": 2,
                    "numoutlets": 3,
                    "outlettype": [ "bang", "bang", "int" ],
                    "patching_rect": [ 19.78947353363037, 105.26315689086914, 40.0, 22.0 ],
                    "text": "Uzi 2"
                }
            },
            {
                "box": {
                    "id": "obj-18",
                    "maxclass": "newobj",
                    "numinlets": 2,
                    "numoutlets": 2,
                    "outlettype": [ "", "" ],
                    "patching_rect": [ 19.28947353363037, 325.6578916311264, 41.0, 22.0 ],
                    "text": "zl sort"
                }
            },
            {
                "box": {
                    "id": "obj-15",
                    "maxclass": "newobj",
                    "numinlets": 1,
                    "numoutlets": 1,
                    "outlettype": [ "" ],
                    "patching_rect": [ 19.28947353363037, 194.07894551753998, 105.0, 22.0 ],
                    "text": "expr random(-7\\,3)"
                }
            },
            {
                "box": {
                    "id": "obj-12",
                    "linecount": 2,
                    "maxclass": "newobj",
                    "numinlets": 2,
                    "numoutlets": 1,
                    "outlettype": [ "" ],
                    "patching_rect": [ 23.026315569877625, 397.368417263031, 167.10526156425476, 36.0 ],
                    "text": "vexpr $i2 * $i2 + random(0\\, $i2) @scalarmode 1"
                }
            },
            {
                "box": {
                    "id": "obj-9",
                    "maxclass": "newobj",
                    "numinlets": 1,
                    "numoutlets": 1,
                    "outlettype": [ "" ],
                    "patching_rect": [ 1050.6578847169876, 57.89473628997803, 90.0, 22.0 ],
                    "text": "loadmess 5000"
                }
            },
            {
                "box": {
                    "format": 6,
                    "id": "obj-11",
                    "maxclass": "flonum",
                    "numinlets": 1,
                    "numoutlets": 2,
                    "outlettype": [ "", "bang" ],
                    "parameter_enable": 0,
                    "patching_rect": [ 1046.052621603012, 115.13157784938812, 50.0, 22.0 ]
                }
            },
            {
                "box": {
                    "id": "obj-6",
                    "maxclass": "newobj",
                    "numinlets": 1,
                    "numoutlets": 1,
                    "outlettype": [ "" ],
                    "patching_rect": [ 933.5526226758957, 57.89473628997803, 90.0, 22.0 ],
                    "text": "loadmess 2000"
                }
            },
            {
                "box": {
                    "format": 6,
                    "id": "obj-7",
                    "maxclass": "flonum",
                    "numinlets": 1,
                    "numoutlets": 2,
                    "outlettype": [ "", "bang" ],
                    "parameter_enable": 0,
                    "patching_rect": [ 928.9473595619202, 115.13157784938812, 50.0, 22.0 ]
                }
            },
            {
                "box": {
                    "id": "obj-5",
                    "maxclass": "newobj",
                    "numinlets": 2,
                    "numoutlets": 1,
                    "outlettype": [ "" ],
                    "patching_rect": [ 484.868416428566, 251.31578707695007, 123.0, 22.0 ],
                    "text": "expr random($i1\\, $i2)"
                }
            },
            {
                "box": {
                    "id": "obj-4",
                    "maxclass": "comment",
                    "numinlets": 1,
                    "numoutlets": 0,
                    "patching_rect": [ 824.9999921321869, 155.92105114459991, 324.83661156892776, 20.0 ],
                    "text": "mod depth"
                }
            },
            {
                "box": {
                    "id": "obj-1",
                    "maxclass": "newobj",
                    "numinlets": 1,
                    "numoutlets": 1,
                    "outlettype": [ "" ],
                    "patching_rect": [ 769.7368347644806, 98.68420958518982, 90.0, 22.0 ],
                    "text": "loadmess 1000"
                }
            },
            {
                "box": {
                    "format": 6,
                    "id": "obj-2",
                    "maxclass": "flonum",
                    "numinlets": 1,
                    "numoutlets": 2,
                    "outlettype": [ "", "bang" ],
                    "parameter_enable": 0,
                    "patching_rect": [ 765.789466381073, 155.92105114459991, 50.0, 22.0 ]
                }
            },
            {
                "box": {
                    "id": "obj-76",
                    "maxclass": "comment",
                    "numinlets": 1,
                    "numoutlets": 0,
                    "patching_rect": [ 463.81578505039215, 33.55263125896454, 122.87582087516785, 20.0 ],
                    "text": "octive stretch factor"
                }
            },
            {
                "box": {
                    "id": "obj-74",
                    "maxclass": "message",
                    "numinlets": 2,
                    "numoutlets": 1,
                    "outlettype": [ "" ],
                    "patching_rect": [ 599.9736790657043, 142.76315653324127, 29.5, 22.0 ],
                    "text": "12"
                }
            },
            {
                "box": {
                    "id": "obj-72",
                    "maxclass": "number",
                    "numinlets": 1,
                    "numoutlets": 2,
                    "outlettype": [ "", "bang" ],
                    "parameter_enable": 0,
                    "patching_rect": [ 539.4736790657043, 172.36841940879822, 50.0, 22.0 ]
                }
            },
            {
                "box": {
                    "id": "obj-68",
                    "maxclass": "newobj",
                    "numinlets": 1,
                    "numoutlets": 1,
                    "outlettype": [ "" ],
                    "patching_rect": [ 539.4736790657043, 98.02631485462189, 90.0, 22.0 ],
                    "text": "loadmess 1000"
                }
            },
            {
                "box": {
                    "id": "obj-67",
                    "maxclass": "message",
                    "numinlets": 2,
                    "numoutlets": 1,
                    "outlettype": [ "" ],
                    "patching_rect": [ 428.94736433029175, 99.34210431575775, 29.5, 22.0 ],
                    "text": "2."
                }
            },
            {
                "box": {
                    "id": "obj-65",
                    "maxclass": "button",
                    "numinlets": 1,
                    "numoutlets": 1,
                    "outlettype": [ "bang" ],
                    "parameter_enable": 0,
                    "patching_rect": [ 480.26315331459045, 98.02631485462189, 24.0, 24.0 ]
                }
            },
            {
                "box": {
                    "id": "obj-63",
                    "maxclass": "newobj",
                    "numinlets": 2,
                    "numoutlets": 1,
                    "outlettype": [ "float" ],
                    "patching_rect": [ 428.94736433029175, 190.13157713413239, 29.5, 22.0 ],
                    "text": "f 2"
                }
            },
            {
                "box": {
                    "id": "obj-52",
                    "maxclass": "newobj",
                    "numinlets": 1,
                    "numoutlets": 1,
                    "outlettype": [ "" ],
                    "patching_rect": [ 659.8684147596359, 98.68420958518982, 90.0, 22.0 ],
                    "text": "loadmess 1000"
                }
            },
            {
                "box": {
                    "format": 6,
                    "id": "obj-53",
                    "maxclass": "flonum",
                    "numinlets": 1,
                    "numoutlets": 2,
                    "outlettype": [ "", "bang" ],
                    "parameter_enable": 0,
                    "patching_rect": [ 659.8684147596359, 186.1842087507248, 50.0, 22.0 ]
                }
            },
            {
                "box": {
                    "color": [ 0.317647, 0.654902, 0.976471, 1.0 ],
                    "id": "obj-56",
                    "maxclass": "newobj",
                    "numinlets": 1,
                    "numoutlets": 1,
                    "outlettype": [ "" ],
                    "patching_rect": [ 480.26315331459045, 142.76315653324127, 57.0, 22.0 ],
                    "text": "value phi"
                }
            },
            {
                "box": {
                    "id": "obj-59",
                    "linecount": 2,
                    "maxclass": "comment",
                    "numinlets": 1,
                    "numoutlets": 0,
                    "patching_rect": [ 401.97368037700653, 57.89473628997803, 324.83661156892776, 34.0 ],
                    "presentation_linecount": 2,
                    "text": "<i> integers create a diatonic scale in n equal divisions of the pseudo-octave (EDO)"
                }
            },
            {
                "box": {
                    "id": "obj-25",
                    "maxclass": "newobj",
                    "numinlets": 7,
                    "numoutlets": 1,
                    "outlettype": [ "" ],
                    "patching_rect": [ 15.789473533630371, 518.4210476875305, 224.09416711330414, 22.0 ],
                    "text": "pack i i f i f f f"
                }
            },
            {
                "box": {
                    "fontface": 2,
                    "id": "obj-23",
                    "maxclass": "comment",
                    "numinlets": 1,
                    "numoutlets": 0,
                    "patching_rect": [ 114.47368311882019, 550.6578894853592, 124.99999761581421, 20.0 ],
                    "text": "<frequency duration>"
                }
            },
            {
                "box": {
                    "id": "obj-14",
                    "maxclass": "newobj",
                    "numinlets": 1,
                    "numoutlets": 1,
                    "outlettype": [ "" ],
                    "patching_rect": [ 15.789473533630371, 549.3421000242233, 79.0, 22.0 ],
                    "text": "prepend note"
                }
            },
            {
                "box": {
                    "id": "obj-13",
                    "maxclass": "newobj",
                    "numinlets": 1,
                    "numoutlets": 0,
                    "patching_rect": [ 99.99999904632568, 777.6315715312958, 68.0, 22.0 ],
                    "text": "send~ out2"
                }
            },
            {
                "box": {
                    "id": "obj-10",
                    "maxclass": "newobj",
                    "numinlets": 1,
                    "numoutlets": 0,
                    "patching_rect": [ 15.789473533630371, 777.6315715312958, 68.0, 22.0 ],
                    "text": "send~ out1"
                }
            },
            {
                "box": {
                    "channels": 1,
                    "id": "obj-8",
                    "lastchannelcount": 0,
                    "maxclass": "live.gain~",
                    "numinlets": 1,
                    "numoutlets": 4,
                    "outlettype": [ "signal", "", "float", "list" ],
                    "parameter_enable": 1,
                    "patching_rect": [ 15.789473533630371, 623.7288284301758, 48.0, 136.0 ],
                    "saved_attribute_attributes": {
                        "valueof": {
                            "parameter_longname": "live.gain~[1]",
                            "parameter_mmax": 6.0,
                            "parameter_mmin": -70.0,
                            "parameter_modmode": 3,
                            "parameter_shortname": "live.gain~[1]",
                            "parameter_type": 0,
                            "parameter_unitstyle": 4
                        }
                    },
                    "varname": "live.gain~[1]"
                }
            },
            {
                "box": {
                    "id": "obj-3",
                    "maxclass": "newobj",
                    "numinlets": 1,
                    "numoutlets": 4,
                    "outlettype": [ "signal", "", "", "" ],
                    "patching_rect": [ 15.789473533630371, 580.9210470914841, 148.0, 22.0 ],
                    "text": "poly~ phi.polyCore.v02 16"
                }
            }
        ],
        "lines": [
            {
                "patchline": {
                    "destination": [ "obj-2", 0 ],
                    "source": [ "obj-1", 0 ]
                }
            },
            {
                "patchline": {
                    "destination": [ "obj-5", 1 ],
                    "source": [ "obj-11", 0 ]
                }
            },
            {
                "patchline": {
                    "destination": [ "obj-25", 0 ],
                    "source": [ "obj-12", 0 ]
                }
            },
            {
                "patchline": {
                    "destination": [ "obj-3", 0 ],
                    "source": [ "obj-14", 0 ]
                }
            },
            {
                "patchline": {
                    "destination": [ "obj-20", 0 ],
                    "source": [ "obj-15", 0 ]
                }
            },
            {
                "patchline": {
                    "destination": [ "obj-12", 0 ],
                    "source": [ "obj-18", 0 ]
                }
            },
            {
                "patchline": {
                    "destination": [ "obj-15", 0 ],
                    "source": [ "obj-19", 0 ]
                }
            },
            {
                "patchline": {
                    "destination": [ "obj-20", 0 ],
                    "source": [ "obj-19", 1 ]
                }
            },
            {
                "patchline": {
                    "destination": [ "obj-25", 5 ],
                    "source": [ "obj-2", 0 ]
                }
            },
            {
                "patchline": {
                    "destination": [ "obj-18", 0 ],
                    "source": [ "obj-20", 0 ]
                }
            },
            {
                "patchline": {
                    "destination": [ "obj-27", 0 ],
                    "source": [ "obj-21", 0 ]
                }
            },
            {
                "patchline": {
                    "destination": [ "obj-14", 0 ],
                    "source": [ "obj-25", 0 ]
                }
            },
            {
                "patchline": {
                    "destination": [ "obj-28", 0 ],
                    "source": [ "obj-27", 0 ]
                }
            },
            {
                "patchline": {
                    "destination": [ "obj-31", 0 ],
                    "source": [ "obj-29", 0 ]
                }
            },
            {
                "patchline": {
                    "destination": [ "obj-8", 0 ],
                    "source": [ "obj-3", 0 ]
                }
            },
            {
                "patchline": {
                    "destination": [ "obj-19", 0 ],
                    "source": [ "obj-31", 0 ]
                }
            },
            {
                "patchline": {
                    "destination": [ "obj-5", 0 ],
                    "source": [ "obj-31", 2 ]
                }
            },
            {
                "patchline": {
                    "destination": [ "obj-63", 0 ],
                    "source": [ "obj-31", 1 ]
                }
            },
            {
                "patchline": {
                    "destination": [ "obj-29", 0 ],
                    "source": [ "obj-33", 0 ]
                }
            },
            {
                "patchline": {
                    "destination": [ "obj-25", 6 ],
                    "midpoints": [ 494.368416428566, 504.0, 230.3836406469345, 504.0 ],
                    "source": [ "obj-5", 0 ]
                }
            },
            {
                "patchline": {
                    "destination": [ "obj-53", 0 ],
                    "source": [ "obj-52", 0 ]
                }
            },
            {
                "patchline": {
                    "destination": [ "obj-25", 4 ],
                    "source": [ "obj-53", 0 ]
                }
            },
            {
                "patchline": {
                    "destination": [ "obj-63", 0 ],
                    "midpoints": [ 489.76315331459045, 176.53646379709244, 438.44736433029175, 176.53646379709244 ],
                    "source": [ "obj-56", 0 ]
                }
            },
            {
                "patchline": {
                    "destination": [ "obj-7", 0 ],
                    "source": [ "obj-6", 0 ]
                }
            },
            {
                "patchline": {
                    "destination": [ "obj-25", 2 ],
                    "source": [ "obj-63", 0 ]
                }
            },
            {
                "patchline": {
                    "destination": [ "obj-56", 0 ],
                    "source": [ "obj-65", 0 ]
                }
            },
            {
                "patchline": {
                    "destination": [ "obj-63", 0 ],
                    "source": [ "obj-67", 0 ]
                }
            },
            {
                "patchline": {
                    "destination": [ "obj-72", 0 ],
                    "source": [ "obj-68", 0 ]
                }
            },
            {
                "patchline": {
                    "destination": [ "obj-5", 0 ],
                    "source": [ "obj-7", 0 ]
                }
            },
            {
                "patchline": {
                    "destination": [ "obj-12", 1 ],
                    "order": 0,
                    "source": [ "obj-72", 0 ]
                }
            },
            {
                "patchline": {
                    "destination": [ "obj-25", 3 ],
                    "order": 1,
                    "source": [ "obj-72", 0 ]
                }
            },
            {
                "patchline": {
                    "destination": [ "obj-72", 0 ],
                    "midpoints": [ 609.4736790657043, 152.88730409741402, 548.9736790657043, 152.88730409741402 ],
                    "source": [ "obj-74", 0 ]
                }
            },
            {
                "patchline": {
                    "destination": [ "obj-10", 0 ],
                    "order": 1,
                    "source": [ "obj-8", 0 ]
                }
            },
            {
                "patchline": {
                    "destination": [ "obj-13", 0 ],
                    "order": 0,
                    "source": [ "obj-8", 0 ]
                }
            },
            {
                "patchline": {
                    "destination": [ "obj-11", 0 ],
                    "source": [ "obj-9", 0 ]
                }
            }
        ],
        "parameters": {
            "obj-8": [ "live.gain~[1]", "live.gain~[1]", 0 ],
            "parameterbanks": {
                "0": {
                    "index": 0,
                    "name": "",
                    "parameters": [ "-", "-", "-", "-", "-", "-", "-", "-" ],
                    "buttons": [ "-", "-", "-", "-", "-", "-", "-", "-" ]
                }
            },
            "inherited_shortname": 1
        },
        "autosave": 0
    }
}