{
    "patcher": {
        "fileversion": 1,
        "appversion": {
            "major": 9,
            "minor": 1,
            "revision": 2,
            "architecture": "x64",
            "modernui": 1
        },
        "classnamespace": "box",
        "rect": [ 34.0, 78.0, 1597.0, 950.0 ],
        "boxes": [
            {
                "box": {
                    "id": "obj-2",
                    "maxclass": "preset",
                    "numinlets": 1,
                    "numoutlets": 5,
                    "outlettype": [ "preset", "int", "preset", "int", "" ],
                    "patching_rect": [ 746.6666421890259, 25.185184359550476, 100.0, 40.0 ]
                }
            },
            {
                "box": {
                    "id": "obj-47",
                    "maxclass": "message",
                    "numinlets": 2,
                    "numoutlets": 1,
                    "outlettype": [ "" ],
                    "patching_rect": [ 802.9239416718483, 74.57627296447754, 35.0, 22.0 ],
                    "text": "clear"
                }
            },
            {
                "box": {
                    "color": [ 0.14901960784313725, 0.1803921568627451, 0.796078431372549, 1.0 ],
                    "id": "obj-43",
                    "maxclass": "newobj",
                    "numinlets": 3,
                    "numoutlets": 1,
                    "outlettype": [ "float" ],
                    "patching_rect": [ 717.5438284277916, 305.8479399085045, 82.0, 22.0 ],
                    "text": "peek~ shaper"
                }
            },
            {
                "box": {
                    "id": "obj-42",
                    "maxclass": "message",
                    "numinlets": 2,
                    "numoutlets": 1,
                    "outlettype": [ "" ],
                    "patching_rect": [ 802.9239416718483, 110.91809391975403, 155.0, 22.0 ],
                    "text": "setdomain 512, range -1. 1."
                }
            },
            {
                "box": {
                    "addpoints": [ 0.0, 0.0, 0, 1000.0, 1.0, 0 ],
                    "classic_curve": 1,
                    "id": "obj-40",
                    "maxclass": "function",
                    "numinlets": 1,
                    "numoutlets": 4,
                    "outlettype": [ "float", "", "", "bang" ],
                    "parameter_enable": 0,
                    "patching_rect": [ 728.0701437592506, 168.81282824277878, 200.0, 100.0 ]
                }
            },
            {
                "box": {
                    "id": "obj-39",
                    "maxclass": "newobj",
                    "numinlets": 1,
                    "numoutlets": 2,
                    "outlettype": [ "int", "int" ],
                    "patching_rect": [ 717.5438284277916, 127.29236221313477, 29.5, 22.0 ],
                    "text": "t i i"
                }
            },
            {
                "box": {
                    "id": "obj-38",
                    "maxclass": "button",
                    "numinlets": 1,
                    "numoutlets": 1,
                    "outlettype": [ "bang" ],
                    "parameter_enable": 0,
                    "patching_rect": [ 677.7777482867241, 54.777745485305786, 24.0, 24.0 ]
                }
            },
            {
                "box": {
                    "id": "obj-36",
                    "maxclass": "newobj",
                    "numinlets": 2,
                    "numoutlets": 3,
                    "outlettype": [ "bang", "bang", "int" ],
                    "patching_rect": [ 677.7777482867241, 88.11107736825943, 59.0, 22.0 ],
                    "text": "Uzi 512 0"
                }
            },
            {
                "box": {
                    "id": "obj-24",
                    "maxclass": "newobj",
                    "numinlets": 1,
                    "numoutlets": 0,
                    "patching_rect": [ 165.24063688516617, 567.9738741517067, 68.0, 22.0 ],
                    "text": "send~ out2"
                }
            },
            {
                "box": {
                    "id": "obj-23",
                    "maxclass": "newobj",
                    "numinlets": 1,
                    "numoutlets": 0,
                    "patching_rect": [ 71.07894670963287, 567.9738741517067, 68.0, 22.0 ],
                    "text": "send~ out1"
                }
            },
            {
                "box": {
                    "channels": 1,
                    "id": "obj-20",
                    "lastchannelcount": 0,
                    "maxclass": "live.gain~",
                    "numinlets": 1,
                    "numoutlets": 4,
                    "outlettype": [ "signal", "", "float", "list" ],
                    "parameter_enable": 1,
                    "patching_rect": [ 69.07894670963287, 395.42484909296036, 48.0, 136.0 ],
                    "saved_attribute_attributes": {
                        "valueof": {
                            "parameter_longname": "live.gain~",
                            "parameter_mmax": 6.0,
                            "parameter_mmin": -70.0,
                            "parameter_modmode": 3,
                            "parameter_shortname": "live.gain~",
                            "parameter_type": 0,
                            "parameter_unitstyle": 4
                        }
                    },
                    "varname": "live.gain~"
                }
            },
            {
                "box": {
                    "id": "obj-18",
                    "maxclass": "scope~",
                    "numinlets": 2,
                    "numoutlets": 0,
                    "patching_rect": [ 325.49020636081696, 392.1568751335144, 249.67321050167084, 55.55555731058121 ]
                }
            },
            {
                "box": {
                    "id": "obj-17",
                    "maxclass": "scope~",
                    "numinlets": 2,
                    "numoutlets": 0,
                    "patching_rect": [ 325.49020636081696, 311.8644142150879, 249.67321050167084, 55.55555731058121 ]
                }
            },
            {
                "box": {
                    "id": "obj-16",
                    "maxclass": "newobj",
                    "numinlets": 5,
                    "numoutlets": 4,
                    "outlettype": [ "signal", "signal", "", "" ],
                    "patching_rect": [ 158.07894670963287, 199.34641152620316, 119.0, 22.0 ],
                    "text": "adsr~ 10. 5. 0.8 100."
                }
            },
            {
                "box": {
                    "id": "obj-15",
                    "maxclass": "newobj",
                    "numinlets": 6,
                    "numoutlets": 1,
                    "outlettype": [ "" ],
                    "patching_rect": [ 158.07894670963287, 160.7843188047409, 97.0, 22.0 ],
                    "text": "scale 0 127 0. 1."
                }
            },
            {
                "box": {
                    "id": "obj-14",
                    "maxclass": "newobj",
                    "numinlets": 2,
                    "numoutlets": 1,
                    "outlettype": [ "signal" ],
                    "patching_rect": [ 69.07894670963287, 316.04277151823044, 29.5, 22.0 ],
                    "text": "*~"
                }
            },
            {
                "box": {
                    "color": [ 0.14901960784313725, 0.1803921568627451, 0.796078431372549, 1.0 ],
                    "id": "obj-13",
                    "maxclass": "newobj",
                    "numinlets": 3,
                    "numoutlets": 1,
                    "outlettype": [ "signal" ],
                    "patching_rect": [ 69.07894670963287, 271.1229867339134, 123.0, 22.0 ],
                    "text": "lookup~ shaper 0 511"
                }
            },
            {
                "box": {
                    "id": "obj-12",
                    "maxclass": "message",
                    "numinlets": 2,
                    "numoutlets": 1,
                    "outlettype": [ "" ],
                    "patching_rect": [ 381.57894372940063, 164.70587754249573, 65.0, 22.0 ],
                    "text": "set shaper"
                }
            },
            {
                "box": {
                    "color": [ 0.960784, 0.827451, 0.156863, 1.0 ],
                    "id": "obj-32",
                    "maxclass": "newobj",
                    "numinlets": 0,
                    "numoutlets": 1,
                    "outlettype": [ "" ],
                    "patching_rect": [ 244.3850196003914, 57.236841559410095, 33.0, 22.0 ],
                    "text": "r dur"
                }
            },
            {
                "box": {
                    "buffername": "shaper",
                    "id": "obj-10",
                    "maxclass": "waveform~",
                    "numinlets": 5,
                    "numoutlets": 6,
                    "outlettype": [ "float", "float", "float", "float", "list", "" ],
                    "patching_rect": [ 381.57894372940063, 204.81282824277878, 256.0, 64.0 ]
                }
            },
            {
                "box": {
                    "color": [ 0.14901960784313725, 0.1803921568627451, 0.796078431372549, 1.0 ],
                    "id": "obj-7",
                    "maxclass": "newobj",
                    "numinlets": 1,
                    "numoutlets": 2,
                    "outlettype": [ "float", "bang" ],
                    "patching_rect": [ 381.57894372940063, 116.44736731052399, 160.0, 22.0 ],
                    "text": "buffer~ shaper @samps 512"
                }
            },
            {
                "box": {
                    "id": "obj-6",
                    "maxclass": "newobj",
                    "numinlets": 2,
                    "numoutlets": 1,
                    "outlettype": [ "signal" ],
                    "patching_rect": [ 69.07894670963287, 219.73684000968933, 43.0, 22.0 ],
                    "text": "cycle~"
                }
            },
            {
                "box": {
                    "id": "obj-5",
                    "maxclass": "newobj",
                    "numinlets": 1,
                    "numoutlets": 1,
                    "outlettype": [ "" ],
                    "patching_rect": [ 69.07894670963287, 168.42105102539062, 32.0, 22.0 ],
                    "text": "mtof"
                }
            },
            {
                "box": {
                    "id": "obj-1",
                    "maxclass": "newobj",
                    "numinlets": 3,
                    "numoutlets": 2,
                    "outlettype": [ "float", "float" ],
                    "patching_rect": [ 69.07894670963287, 116.44736731052399, 108.0, 22.0 ],
                    "text": "makenote 100 300"
                }
            },
            {
                "box": {
                    "color": [ 0.317647, 0.654902, 0.976471, 1.0 ],
                    "id": "obj-22",
                    "maxclass": "newobj",
                    "numinlets": 0,
                    "numoutlets": 1,
                    "outlettype": [ "" ],
                    "patching_rect": [ 165.24063688516617, 57.236841559410095, 56.0, 22.0 ],
                    "text": "r velocity"
                }
            },
            {
                "box": {
                    "color": [ 0.0, 0.533333, 0.168627, 1.0 ],
                    "id": "obj-21",
                    "maxclass": "newobj",
                    "numinlets": 0,
                    "numoutlets": 1,
                    "outlettype": [ "" ],
                    "patching_rect": [ 69.07894670963287, 57.236841559410095, 73.02631509304047, 22.0 ],
                    "text": "r pitch"
                }
            }
        ],
        "lines": [
            {
                "patchline": {
                    "destination": [ "obj-15", 0 ],
                    "source": [ "obj-1", 1 ]
                }
            },
            {
                "patchline": {
                    "destination": [ "obj-5", 0 ],
                    "source": [ "obj-1", 0 ]
                }
            },
            {
                "patchline": {
                    "destination": [ "obj-10", 0 ],
                    "source": [ "obj-12", 0 ]
                }
            },
            {
                "patchline": {
                    "destination": [ "obj-14", 0 ],
                    "source": [ "obj-13", 0 ]
                }
            },
            {
                "patchline": {
                    "destination": [ "obj-18", 0 ],
                    "midpoints": [ 78.57894670963287, 378.0, 334.99020636081696, 378.0 ],
                    "order": 0,
                    "source": [ "obj-14", 0 ]
                }
            },
            {
                "patchline": {
                    "destination": [ "obj-20", 0 ],
                    "order": 1,
                    "source": [ "obj-14", 0 ]
                }
            },
            {
                "patchline": {
                    "destination": [ "obj-16", 0 ],
                    "source": [ "obj-15", 0 ]
                }
            },
            {
                "patchline": {
                    "destination": [ "obj-14", 1 ],
                    "midpoints": [ 167.57894670963287, 258.0, 54.0, 258.0, 54.0, 303.0, 89.07894670963287, 303.0 ],
                    "order": 1,
                    "source": [ "obj-16", 0 ]
                }
            },
            {
                "patchline": {
                    "destination": [ "obj-17", 0 ],
                    "midpoints": [ 167.57894670963287, 258.0, 334.99020636081696, 258.0 ],
                    "order": 0,
                    "source": [ "obj-16", 0 ]
                }
            },
            {
                "patchline": {
                    "destination": [ "obj-40", 0 ],
                    "midpoints": [ 756.1666421890259, 153.0, 738.0, 153.0, 738.0, 165.0, 737.5701437592506, 165.0 ],
                    "source": [ "obj-2", 0 ]
                }
            },
            {
                "patchline": {
                    "destination": [ "obj-23", 0 ],
                    "midpoints": [ 78.57894670963287, 534.0, 80.57894670963287, 534.0 ],
                    "order": 1,
                    "source": [ "obj-20", 0 ]
                }
            },
            {
                "patchline": {
                    "destination": [ "obj-24", 0 ],
                    "midpoints": [ 78.57894670963287, 552.0, 174.74063688516617, 552.0 ],
                    "order": 0,
                    "source": [ "obj-20", 0 ]
                }
            },
            {
                "patchline": {
                    "destination": [ "obj-1", 0 ],
                    "source": [ "obj-21", 0 ]
                }
            },
            {
                "patchline": {
                    "destination": [ "obj-1", 1 ],
                    "midpoints": [ 174.74063688516617, 102.0, 123.07894670963287, 102.0 ],
                    "source": [ "obj-22", 0 ]
                }
            },
            {
                "patchline": {
                    "destination": [ "obj-1", 2 ],
                    "midpoints": [ 253.8850196003914, 102.0, 167.57894670963287, 102.0 ],
                    "source": [ "obj-32", 0 ]
                }
            },
            {
                "patchline": {
                    "destination": [ "obj-39", 0 ],
                    "source": [ "obj-36", 2 ]
                }
            },
            {
                "patchline": {
                    "destination": [ "obj-36", 0 ],
                    "source": [ "obj-38", 0 ]
                }
            },
            {
                "patchline": {
                    "destination": [ "obj-40", 0 ],
                    "source": [ "obj-39", 1 ]
                }
            },
            {
                "patchline": {
                    "destination": [ "obj-43", 0 ],
                    "source": [ "obj-39", 0 ]
                }
            },
            {
                "patchline": {
                    "destination": [ "obj-43", 1 ],
                    "midpoints": [ 737.5701437592506, 291.0, 758.5438284277916, 291.0 ],
                    "source": [ "obj-40", 0 ]
                }
            },
            {
                "patchline": {
                    "destination": [ "obj-40", 0 ],
                    "midpoints": [ 812.4239416718483, 154.4028976559639, 737.5701437592506, 154.4028976559639 ],
                    "source": [ "obj-42", 0 ]
                }
            },
            {
                "patchline": {
                    "destination": [ "obj-40", 0 ],
                    "midpoints": [ 812.4239416718483, 105.0, 756.0, 105.0, 756.0, 165.0, 737.5701437592506, 165.0 ],
                    "source": [ "obj-47", 0 ]
                }
            },
            {
                "patchline": {
                    "destination": [ "obj-6", 0 ],
                    "source": [ "obj-5", 0 ]
                }
            },
            {
                "patchline": {
                    "destination": [ "obj-13", 0 ],
                    "source": [ "obj-6", 0 ]
                }
            }
        ],
        "parameters": {
            "obj-20": [ "live.gain~", "live.gain~", 0 ],
            "inherited_shortname": 1
        },
        "autosave": 0
    }
}