{
    "patcher": {
        "fileversion": 1,
        "appversion": {
            "major": 9,
            "minor": 1,
            "revision": 2,
            "architecture": "x64",
            "modernui": 1
        },
        "classnamespace": "box",
        "rect": [ 34.0, 79.0, 1597.0, 949.0 ],
        "boxes": [
            {
                "box": {
                    "id": "obj-44",
                    "maxclass": "button",
                    "numinlets": 1,
                    "numoutlets": 1,
                    "outlettype": [ "bang" ],
                    "parameter_enable": 0,
                    "patching_rect": [ 884.0, 84.0, 24.0, 24.0 ]
                }
            },
            {
                "box": {
                    "id": "obj-37",
                    "maxclass": "newobj",
                    "numinlets": 1,
                    "numoutlets": 0,
                    "patcher": {
                        "fileversion": 1,
                        "appversion": {
                            "major": 9,
                            "minor": 1,
                            "revision": 2,
                            "architecture": "x64",
                            "modernui": 1
                        },
                        "classnamespace": "box",
                        "rect": [ 84.0, 132.0, 1000.0, 780.0 ],
                        "visible": 1,
                        "boxes": [
                            {
                                "box": {
                                    "color": [ 0.14901960784313725, 0.1803921568627451, 0.796078431372549, 1.0 ],
                                    "id": "obj-8",
                                    "maxclass": "newobj",
                                    "numinlets": 3,
                                    "numoutlets": 1,
                                    "outlettype": [ "float" ],
                                    "patching_rect": [ 312.41831052303314, 321.5686376094818, 98.0, 22.0 ],
                                    "text": "peek~ high-freqs"
                                }
                            },
                            {
                                "box": {
                                    "color": [ 0.14901960784313725, 0.1803921568627451, 0.796078431372549, 1.0 ],
                                    "id": "obj-9",
                                    "maxclass": "newobj",
                                    "numinlets": 3,
                                    "numoutlets": 1,
                                    "outlettype": [ "float" ],
                                    "patching_rect": [ 174.5098094344139, 321.5686376094818, 95.0, 22.0 ],
                                    "text": "peek~ mid-freqs"
                                }
                            },
                            {
                                "box": {
                                    "color": [ 0.14901960784313725, 0.1803921568627451, 0.796078431372549, 1.0 ],
                                    "id": "obj-13",
                                    "maxclass": "newobj",
                                    "numinlets": 3,
                                    "numoutlets": 1,
                                    "outlettype": [ "float" ],
                                    "patching_rect": [ 35.94771355390549, 321.5686376094818, 94.0, 22.0 ],
                                    "text": "peek~ low-freqs"
                                }
                            },
                            {
                                "box": {
                                    "id": "obj-5",
                                    "maxclass": "newobj",
                                    "numinlets": 2,
                                    "numoutlets": 1,
                                    "outlettype": [ "" ],
                                    "patching_rect": [ 67.86601459980011, 235.29412508010864, 47.0, 22.0 ],
                                    "text": "pack i f"
                                }
                            },
                            {
                                "box": {
                                    "id": "obj-4",
                                    "maxclass": "newobj",
                                    "numinlets": 6,
                                    "numoutlets": 1,
                                    "outlettype": [ "" ],
                                    "patching_rect": [ 86.27451252937317, 183.0065417289734, 107.0, 22.0 ],
                                    "text": "scale 0 8191 -1. 1."
                                }
                            },
                            {
                                "box": {
                                    "id": "obj-3",
                                    "maxclass": "newobj",
                                    "numinlets": 2,
                                    "numoutlets": 1,
                                    "outlettype": [ "int" ],
                                    "patching_rect": [ 85.36601459980011, 132.02614796161652, 29.5, 22.0 ],
                                    "text": "-1"
                                }
                            },
                            {
                                "box": {
                                    "id": "obj-2",
                                    "maxclass": "newobj",
                                    "numinlets": 2,
                                    "numoutlets": 3,
                                    "outlettype": [ "bang", "bang", "int" ],
                                    "patching_rect": [ 48.36601459980011, 75.81699585914612, 56.0, 22.0 ],
                                    "text": "Uzi 8192"
                                }
                            },
                            {
                                "box": {
                                    "comment": "",
                                    "id": "obj-1",
                                    "index": 1,
                                    "maxclass": "inlet",
                                    "numinlets": 0,
                                    "numoutlets": 1,
                                    "outlettype": [ "bang" ],
                                    "patching_rect": [ 48.36601459980011, 27.45098125934601, 30.0, 30.0 ]
                                }
                            }
                        ],
                        "lines": [
                            {
                                "patchline": {
                                    "destination": [ "obj-2", 0 ],
                                    "source": [ "obj-1", 0 ]
                                }
                            },
                            {
                                "patchline": {
                                    "destination": [ "obj-3", 0 ],
                                    "source": [ "obj-2", 2 ]
                                }
                            },
                            {
                                "patchline": {
                                    "destination": [ "obj-4", 0 ],
                                    "order": 0,
                                    "source": [ "obj-3", 0 ]
                                }
                            },
                            {
                                "patchline": {
                                    "destination": [ "obj-5", 0 ],
                                    "order": 1,
                                    "source": [ "obj-3", 0 ]
                                }
                            },
                            {
                                "patchline": {
                                    "destination": [ "obj-5", 1 ],
                                    "source": [ "obj-4", 0 ]
                                }
                            },
                            {
                                "patchline": {
                                    "destination": [ "obj-13", 0 ],
                                    "order": 2,
                                    "source": [ "obj-5", 0 ]
                                }
                            },
                            {
                                "patchline": {
                                    "destination": [ "obj-8", 0 ],
                                    "order": 0,
                                    "source": [ "obj-5", 0 ]
                                }
                            },
                            {
                                "patchline": {
                                    "destination": [ "obj-9", 0 ],
                                    "order": 1,
                                    "source": [ "obj-5", 0 ]
                                }
                            }
                        ]
                    },
                    "patching_rect": [ 881.4814525842667, 121.48147749900818, 169.0, 22.0 ],
                    "text": "p reset-linear-transfer-function"
                }
            },
            {
                "box": {
                    "id": "obj-35",
                    "maxclass": "newobj",
                    "numinlets": 2,
                    "numoutlets": 1,
                    "outlettype": [ "signal" ],
                    "patching_rect": [ 196.22221624851227, 450.3703556060791, 54.0, 22.0 ],
                    "text": "*~ 0.707"
                }
            },
            {
                "box": {
                    "channels": 1,
                    "id": "obj-34",
                    "lastchannelcount": 0,
                    "maxclass": "live.gain~",
                    "numinlets": 1,
                    "numoutlets": 4,
                    "outlettype": [ "signal", "", "float", "list" ],
                    "parameter_enable": 1,
                    "patching_rect": [ 411.11109763383865, 262.96295434236526, 48.0, 136.0 ],
                    "saved_attribute_attributes": {
                        "valueof": {
                            "parameter_longname": "live.gain~[2]",
                            "parameter_mmax": 6.0,
                            "parameter_mmin": -70.0,
                            "parameter_modmode": 3,
                            "parameter_shortname": "live.gain~",
                            "parameter_type": 0,
                            "parameter_unitstyle": 4
                        }
                    },
                    "varname": "live.gain~[2]"
                }
            },
            {
                "box": {
                    "channels": 1,
                    "id": "obj-33",
                    "lastchannelcount": 0,
                    "maxclass": "live.gain~",
                    "numinlets": 1,
                    "numoutlets": 4,
                    "outlettype": [ "signal", "", "float", "list" ],
                    "parameter_enable": 1,
                    "patching_rect": [ 243.79956352710724, 262.96295434236526, 48.0, 136.0 ],
                    "saved_attribute_attributes": {
                        "valueof": {
                            "parameter_longname": "live.gain~[1]",
                            "parameter_mmax": 6.0,
                            "parameter_mmin": -70.0,
                            "parameter_modmode": 3,
                            "parameter_shortname": "live.gain~",
                            "parameter_type": 0,
                            "parameter_unitstyle": 4
                        }
                    },
                    "varname": "live.gain~[1]"
                }
            },
            {
                "box": {
                    "id": "obj-32",
                    "maxclass": "button",
                    "numinlets": 1,
                    "numoutlets": 1,
                    "outlettype": [ "bang" ],
                    "parameter_enable": 0,
                    "patching_rect": [ 659.999978363514, 72.59259021282196, 24.0, 24.0 ]
                }
            },
            {
                "box": {
                    "id": "obj-30",
                    "maxclass": "newobj",
                    "numinlets": 1,
                    "numoutlets": 1,
                    "outlettype": [ "" ],
                    "patcher": {
                        "fileversion": 1,
                        "appversion": {
                            "major": 9,
                            "minor": 1,
                            "revision": 2,
                            "architecture": "x64",
                            "modernui": 1
                        },
                        "classnamespace": "box",
                        "rect": [ 235.0, 167.0, 1000.0, 780.0 ],
                        "visible": 1,
                        "boxes": [
                            {
                                "box": {
                                    "format": 6,
                                    "id": "obj-16",
                                    "maxclass": "flonum",
                                    "numinlets": 1,
                                    "numoutlets": 2,
                                    "outlettype": [ "", "bang" ],
                                    "parameter_enable": 0,
                                    "patching_rect": [ 112.4999989271164, 244.26315581798553, 50.0, 22.0 ]
                                }
                            },
                            {
                                "box": {
                                    "id": "obj-14",
                                    "linecount": 5,
                                    "maxclass": "comment",
                                    "numinlets": 1,
                                    "numoutlets": 0,
                                    "patching_rect": [ 224.34210312366486, 217.76315581798553, 150.0, 75.0 ],
                                    "text": "the number of sample desired buffer length in terms of a number of samples, convert second to milliseconds"
                                }
                            },
                            {
                                "box": {
                                    "id": "obj-12",
                                    "maxclass": "newobj",
                                    "numinlets": 1,
                                    "numoutlets": 1,
                                    "outlettype": [ "" ],
                                    "patching_rect": [ 112.4999989271164, 189.47368240356445, 145.0, 22.0 ],
                                    "text": "expr (8192. / $f1 ) * 1000."
                                }
                            },
                            {
                                "box": {
                                    "id": "obj-11",
                                    "linecount": 3,
                                    "maxclass": "comment",
                                    "numinlets": 1,
                                    "numoutlets": 0,
                                    "patching_rect": [ 182.2368403673172, 131.57894611358643, 150.0, 48.0 ],
                                    "text": "sampling rate, output will update if the sample rate changes"
                                }
                            },
                            {
                                "box": {
                                    "id": "obj-9",
                                    "maxclass": "comment",
                                    "numinlets": 1,
                                    "numoutlets": 0,
                                    "patching_rect": [ 159.8684195280075, 99.02631485462189, 150.0, 20.0 ],
                                    "text": "grad current sr"
                                }
                            },
                            {
                                "box": {
                                    "format": 6,
                                    "id": "obj-7",
                                    "maxclass": "flonum",
                                    "numinlets": 1,
                                    "numoutlets": 2,
                                    "outlettype": [ "", "bang" ],
                                    "parameter_enable": 0,
                                    "patching_rect": [ 112.4999989271164, 135.29412192106247, 67.7368414402008, 22.0 ]
                                }
                            },
                            {
                                "box": {
                                    "id": "obj-5",
                                    "linecount": 2,
                                    "maxclass": "comment",
                                    "numinlets": 1,
                                    "numoutlets": 0,
                                    "patching_rect": [ 103.4999989271164, 37.0, 150.0, 34.0 ],
                                    "text": "bang to calculate the buffer length"
                                }
                            },
                            {
                                "box": {
                                    "id": "obj-3",
                                    "maxclass": "newobj",
                                    "numinlets": 2,
                                    "numoutlets": 2,
                                    "outlettype": [ "", "int" ],
                                    "patching_rect": [ 64.47368359565735, 98.02631485462189, 67.0, 22.0 ],
                                    "text": "adstatus sr"
                                }
                            },
                            {
                                "box": {
                                    "comment": "",
                                    "id": "obj-2",
                                    "index": 1,
                                    "maxclass": "outlet",
                                    "numinlets": 1,
                                    "numoutlets": 0,
                                    "patching_rect": [ 112.4999989271164, 290.13157618045807, 30.0, 30.0 ]
                                }
                            },
                            {
                                "box": {
                                    "comment": "",
                                    "id": "obj-1",
                                    "index": 1,
                                    "maxclass": "inlet",
                                    "numinlets": 0,
                                    "numoutlets": 1,
                                    "outlettype": [ "bang" ],
                                    "patching_rect": [ 64.47368359565735, 39.0, 30.0, 30.0 ]
                                }
                            }
                        ],
                        "lines": [
                            {
                                "patchline": {
                                    "destination": [ "obj-3", 0 ],
                                    "source": [ "obj-1", 0 ]
                                }
                            },
                            {
                                "patchline": {
                                    "destination": [ "obj-16", 0 ],
                                    "source": [ "obj-12", 0 ]
                                }
                            },
                            {
                                "patchline": {
                                    "destination": [ "obj-2", 0 ],
                                    "source": [ "obj-16", 0 ]
                                }
                            },
                            {
                                "patchline": {
                                    "destination": [ "obj-7", 0 ],
                                    "source": [ "obj-3", 1 ]
                                }
                            },
                            {
                                "patchline": {
                                    "destination": [ "obj-12", 0 ],
                                    "source": [ "obj-7", 0 ]
                                }
                            }
                        ]
                    },
                    "patching_rect": [ 659.999978363514, 102.962959587574, 137.0, 22.0 ],
                    "text": "p calculate-buffer-length"
                }
            },
            {
                "box": {
                    "format": 6,
                    "id": "obj-28",
                    "maxclass": "flonum",
                    "numinlets": 1,
                    "numoutlets": 2,
                    "outlettype": [ "", "bang" ],
                    "parameter_enable": 0,
                    "patching_rect": [ 659.999978363514, 136.0, 50.0, 22.0 ]
                }
            },
            {
                "box": {
                    "id": "obj-22",
                    "maxclass": "newobj",
                    "numinlets": 1,
                    "numoutlets": 1,
                    "outlettype": [ "" ],
                    "patching_rect": [ 659.999978363514, 165.9259204864502, 77.0, 22.0 ],
                    "text": "prepend size"
                }
            },
            {
                "box": {
                    "id": "obj-21",
                    "maxclass": "newobj",
                    "numinlets": 1,
                    "numoutlets": 3,
                    "outlettype": [ "", "", "" ],
                    "patching_rect": [ 659.999978363514, 201.4814748764038, 40.0, 22.0 ],
                    "text": "t l l l"
                }
            },
            {
                "box": {
                    "id": "obj-11",
                    "maxclass": "message",
                    "numinlets": 2,
                    "numoutlets": 1,
                    "outlettype": [ "" ],
                    "patching_rect": [ 888.8888597488403, 481.4814656972885, 147.0, 22.0 ],
                    "text": "set high-freqs, mode draw"
                }
            },
            {
                "box": {
                    "buffername": "high-freqs",
                    "id": "obj-15",
                    "maxclass": "waveform~",
                    "numinlets": 5,
                    "numoutlets": 6,
                    "outlettype": [ "float", "float", "float", "float", "list", "" ],
                    "patching_rect": [ 889.0, 521.0, 352.0, 95.0 ],
                    "setmode": 4
                }
            },
            {
                "box": {
                    "id": "obj-8",
                    "maxclass": "message",
                    "numinlets": 2,
                    "numoutlets": 1,
                    "outlettype": [ "" ],
                    "patching_rect": [ 699.2592363357544, 481.4814656972885, 144.0, 22.0 ],
                    "text": "set mid-freqs, mode draw"
                }
            },
            {
                "box": {
                    "buffername": "mid-freqs",
                    "id": "obj-9",
                    "maxclass": "waveform~",
                    "numinlets": 5,
                    "numoutlets": 6,
                    "outlettype": [ "float", "float", "float", "float", "list", "" ],
                    "patching_rect": [ 699.2592363357544, 521.4814643859863, 171.85184621810913, 57.037035167217255 ],
                    "setmode": 4
                }
            },
            {
                "box": {
                    "color": [ 0.14901960784313725, 0.1803921568627451, 0.796078431372549, 1.0 ],
                    "id": "obj-6",
                    "maxclass": "newobj",
                    "numinlets": 1,
                    "numoutlets": 2,
                    "outlettype": [ "float", "bang" ],
                    "patching_rect": [ 931.8518213033676, 243.70369571447372, 103.0, 22.0 ],
                    "text": "buffer~ high-freqs"
                }
            },
            {
                "box": {
                    "color": [ 0.14901960784313725, 0.1803921568627451, 0.796078431372549, 1.0 ],
                    "id": "obj-5",
                    "maxclass": "newobj",
                    "numinlets": 1,
                    "numoutlets": 2,
                    "outlettype": [ "float", "bang" ],
                    "patching_rect": [ 795.5555294752121, 243.70369571447372, 99.0, 22.0 ],
                    "text": "buffer~ mid-freqs"
                }
            },
            {
                "box": {
                    "color": [ 0.14901960784313725, 0.1803921568627451, 0.796078431372549, 1.0 ],
                    "id": "obj-4",
                    "maxclass": "newobj",
                    "numinlets": 3,
                    "numoutlets": 1,
                    "outlettype": [ "signal" ],
                    "patching_rect": [ 442.96294844150543, 194.8148084282875, 148.0, 22.0 ],
                    "text": "lookup~ high-freqs 0 8192"
                }
            },
            {
                "box": {
                    "color": [ 0.14901960784313725, 0.1803921568627451, 0.796078431372549, 1.0 ],
                    "id": "obj-3",
                    "maxclass": "newobj",
                    "numinlets": 3,
                    "numoutlets": 1,
                    "outlettype": [ "signal" ],
                    "patching_rect": [ 234.07406640052795, 194.8148084282875, 173.33332765102386, 22.0 ],
                    "text": "lookup~ mid-freqs 0 8192"
                }
            },
            {
                "box": {
                    "id": "obj-1",
                    "maxclass": "newobj",
                    "numinlets": 3,
                    "numoutlets": 4,
                    "outlettype": [ "signal", "signal", "signal", "signal" ],
                    "patching_rect": [ 69.0, 74.57627296447754, 378.0, 22.0 ],
                    "text": "svf~ 500 0.5"
                }
            },
            {
                "box": {
                    "id": "obj-25",
                    "maxclass": "newobj",
                    "numinlets": 1,
                    "numoutlets": 1,
                    "outlettype": [ "signal" ],
                    "patching_rect": [ 69.07894670963287, 34.185184359550476, 74.0, 22.0 ],
                    "text": "receive~ in1"
                }
            },
            {
                "box": {
                    "id": "obj-24",
                    "maxclass": "newobj",
                    "numinlets": 1,
                    "numoutlets": 0,
                    "patching_rect": [ 276.29628723859787, 535.2962783873081, 68.0, 22.0 ],
                    "text": "send~ out2"
                }
            },
            {
                "box": {
                    "id": "obj-23",
                    "maxclass": "newobj",
                    "numinlets": 1,
                    "numoutlets": 0,
                    "patching_rect": [ 182.22221624851227, 535.2962783873081, 68.0, 22.0 ],
                    "text": "send~ out1"
                }
            },
            {
                "box": {
                    "channels": 1,
                    "id": "obj-20",
                    "lastchannelcount": 0,
                    "maxclass": "live.gain~",
                    "numinlets": 1,
                    "numoutlets": 4,
                    "outlettype": [ "signal", "", "float", "list" ],
                    "parameter_enable": 1,
                    "patching_rect": [ 68.88888663053513, 262.96295434236526, 48.0, 136.0 ],
                    "saved_attribute_attributes": {
                        "valueof": {
                            "parameter_longname": "live.gain~",
                            "parameter_mmax": 6.0,
                            "parameter_mmin": -70.0,
                            "parameter_modmode": 3,
                            "parameter_shortname": "live.gain~",
                            "parameter_type": 0,
                            "parameter_unitstyle": 4
                        }
                    },
                    "varname": "live.gain~"
                }
            },
            {
                "box": {
                    "id": "obj-18",
                    "maxclass": "scope~",
                    "numinlets": 2,
                    "numoutlets": 0,
                    "patching_rect": [ 491.85183572769165, 687.4073848724365, 249.67321050167084, 55.55555731058121 ]
                }
            },
            {
                "box": {
                    "id": "obj-17",
                    "maxclass": "scope~",
                    "numinlets": 2,
                    "numoutlets": 0,
                    "patching_rect": [ 491.85183572769165, 607.4073874950409, 249.67321050167084, 55.55555731058121 ]
                }
            },
            {
                "box": {
                    "color": [ 0.14901960784313725, 0.1803921568627451, 0.796078431372549, 1.0 ],
                    "id": "obj-13",
                    "maxclass": "newobj",
                    "numinlets": 3,
                    "numoutlets": 1,
                    "outlettype": [ "signal" ],
                    "patching_rect": [ 68.88888663053513, 194.8148084282875, 143.0, 22.0 ],
                    "text": "lookup~ low-freqs 0 8192"
                }
            },
            {
                "box": {
                    "id": "obj-12",
                    "maxclass": "message",
                    "numinlets": 2,
                    "numoutlets": 1,
                    "outlettype": [ "" ],
                    "patching_rect": [ 496.29628002643585, 481.4814656972885, 143.0, 22.0 ],
                    "text": "set low-freqs, mode draw"
                }
            },
            {
                "box": {
                    "buffername": "low-freqs",
                    "id": "obj-10",
                    "maxclass": "waveform~",
                    "numinlets": 5,
                    "numoutlets": 6,
                    "outlettype": [ "float", "float", "float", "float", "list", "" ],
                    "patching_rect": [ 496.29628002643585, 517.7777608036995, 171.85184621810913, 57.037035167217255 ],
                    "setmode": 4
                }
            },
            {
                "box": {
                    "color": [ 0.14901960784313725, 0.1803921568627451, 0.796078431372549, 1.0 ],
                    "id": "obj-7",
                    "maxclass": "newobj",
                    "numinlets": 1,
                    "numoutlets": 2,
                    "outlettype": [ "float", "bang" ],
                    "patching_rect": [ 659.999978363514, 243.70369571447372, 98.0, 22.0 ],
                    "text": "buffer~ low-freqs"
                }
            }
        ],
        "lines": [
            {
                "patchline": {
                    "destination": [ "obj-13", 0 ],
                    "source": [ "obj-1", 0 ]
                }
            },
            {
                "patchline": {
                    "destination": [ "obj-3", 0 ],
                    "midpoints": [ 317.83333333333337, 180.0, 243.57406640052795, 180.0 ],
                    "source": [ "obj-1", 2 ]
                }
            },
            {
                "patchline": {
                    "destination": [ "obj-4", 0 ],
                    "midpoints": [ 198.16666666666669, 180.0, 452.46294844150543, 180.0 ],
                    "source": [ "obj-1", 1 ]
                }
            },
            {
                "patchline": {
                    "destination": [ "obj-15", 0 ],
                    "source": [ "obj-11", 0 ]
                }
            },
            {
                "patchline": {
                    "destination": [ "obj-10", 0 ],
                    "source": [ "obj-12", 0 ]
                }
            },
            {
                "patchline": {
                    "destination": [ "obj-20", 0 ],
                    "source": [ "obj-13", 0 ]
                }
            },
            {
                "patchline": {
                    "destination": [ "obj-35", 0 ],
                    "source": [ "obj-20", 0 ]
                }
            },
            {
                "patchline": {
                    "destination": [ "obj-5", 0 ],
                    "source": [ "obj-21", 1 ]
                }
            },
            {
                "patchline": {
                    "destination": [ "obj-6", 0 ],
                    "source": [ "obj-21", 2 ]
                }
            },
            {
                "patchline": {
                    "destination": [ "obj-7", 0 ],
                    "source": [ "obj-21", 0 ]
                }
            },
            {
                "patchline": {
                    "destination": [ "obj-21", 0 ],
                    "source": [ "obj-22", 0 ]
                }
            },
            {
                "patchline": {
                    "destination": [ "obj-1", 0 ],
                    "source": [ "obj-25", 0 ]
                }
            },
            {
                "patchline": {
                    "destination": [ "obj-22", 0 ],
                    "source": [ "obj-28", 0 ]
                }
            },
            {
                "patchline": {
                    "destination": [ "obj-33", 0 ],
                    "source": [ "obj-3", 0 ]
                }
            },
            {
                "patchline": {
                    "destination": [ "obj-28", 0 ],
                    "source": [ "obj-30", 0 ]
                }
            },
            {
                "patchline": {
                    "destination": [ "obj-30", 0 ],
                    "source": [ "obj-32", 0 ]
                }
            },
            {
                "patchline": {
                    "destination": [ "obj-35", 0 ],
                    "source": [ "obj-33", 0 ]
                }
            },
            {
                "patchline": {
                    "destination": [ "obj-35", 0 ],
                    "source": [ "obj-34", 0 ]
                }
            },
            {
                "patchline": {
                    "destination": [ "obj-23", 0 ],
                    "order": 1,
                    "source": [ "obj-35", 0 ]
                }
            },
            {
                "patchline": {
                    "destination": [ "obj-24", 0 ],
                    "order": 0,
                    "source": [ "obj-35", 0 ]
                }
            },
            {
                "patchline": {
                    "destination": [ "obj-34", 0 ],
                    "source": [ "obj-4", 0 ]
                }
            },
            {
                "patchline": {
                    "destination": [ "obj-37", 0 ],
                    "source": [ "obj-44", 0 ]
                }
            },
            {
                "patchline": {
                    "destination": [ "obj-9", 0 ],
                    "source": [ "obj-8", 0 ]
                }
            }
        ],
        "parameters": {
            "obj-20": [ "live.gain~", "live.gain~", 0 ],
            "obj-33": [ "live.gain~[1]", "live.gain~", 0 ],
            "obj-34": [ "live.gain~[2]", "live.gain~", 0 ],
            "inherited_shortname": 1
        },
        "autosave": 0
    }
}